<?xml version="1.0" standalone="no"?><!-- Generator: Gravit.io --><svg xmlns="http://www.w3.org/2000/svg" xmlns:xlink="http://www.w3.org/1999/xlink" style="isolation:isolate" viewBox="0 0 800 600" width="800" height="600"><g opacity="0.16"><path d=" M 212.344 288.589 L 168.513 261.173 C 155.409 252.977 132.928 250.472 118.342 255.583 L 67.834 273.279 C 53.248 278.39 45.27 270.601 50.031 255.897 L 64.132 212.338 C 68.892 197.633 64.421 176.315 54.155 164.762 L 21.645 128.176 C 11.378 116.622 15.587 106.932 31.038 106.55 L 85.74 105.197 C 101.191 104.815 121.01 94.282 129.972 81.689 L 157.777 42.619 C 166.739 30.026 178.569 31.495 184.178 45.897 L 200.912 88.861 C 206.521 103.262 223.265 117.93 238.281 121.594 L 290.838 134.42 C 305.853 138.084 307.769 148.262 295.113 157.134 L 253.186 186.528 C 240.531 195.4 230.981 215.13 231.873 230.56 L 234.47 275.482 C 235.362 290.911 225.448 296.785 212.344 288.589 Z " fill="rgb(235,235,235)"/></g><g opacity="0.16"><path d=" M 631.344 548.15 L 587.513 520.735 C 574.409 512.539 551.928 510.034 537.342 515.144 L 486.834 532.841 C 472.248 537.951 464.27 530.162 469.031 515.458 L 483.132 471.899 C 487.892 457.195 483.421 435.877 473.155 424.323 L 440.645 387.737 C 430.378 376.184 434.587 366.494 450.038 366.112 L 504.74 364.759 C 520.191 364.377 540.01 353.843 548.972 341.251 L 576.777 302.18 C 585.739 289.588 597.569 291.057 603.178 305.458 L 619.912 348.422 C 625.521 362.824 642.265 377.491 657.281 381.155 L 709.838 393.981 C 724.853 397.645 726.769 407.823 714.113 416.695 L 672.186 446.089 C 659.531 454.961 649.981 474.692 650.873 490.122 L 653.47 535.043 C 654.362 550.473 644.448 556.346 631.344 548.15 Z " fill="rgb(235,235,235)"/></g><g opacity="0.16"><path d=" M 288.421 529.41 L 251.119 493.615 C 239.967 482.914 218.473 475.867 203.15 477.888 L 150.091 484.887 C 134.768 486.909 128.551 477.653 136.216 464.232 L 158.923 424.475 C 166.588 411.054 166.569 389.273 158.881 375.865 L 134.535 333.406 C 126.847 319.998 132.948 311.373 148.151 314.157 L 201.974 324.014 C 217.177 326.798 238.731 320.537 250.077 310.043 L 285.282 277.48 C 296.628 266.985 307.907 270.841 310.455 286.085 L 318.054 331.562 C 320.601 346.807 333.994 364.587 347.943 371.243 L 396.769 394.54 C 410.718 401.196 410.513 411.55 396.311 417.649 L 349.262 437.852 C 335.06 443.95 321.679 461.312 319.398 476.599 L 312.759 521.103 C 310.478 536.389 299.573 540.112 288.421 529.41 Z " fill="rgb(235,235,235)"/></g><g opacity="0.16"><path d=" M 631.344 264.514 L 587.513 237.099 C 574.409 228.903 551.928 226.398 537.342 231.508 L 486.834 249.205 C 472.248 254.315 464.27 246.527 469.031 231.822 L 483.132 188.263 C 487.892 173.559 483.421 152.241 473.155 140.687 L 440.645 104.101 C 430.378 92.548 434.587 82.858 450.038 82.476 L 504.74 81.123 C 520.191 80.741 540.01 70.207 548.972 57.615 L 576.777 18.544 C 585.739 5.952 597.569 7.421 603.178 21.823 L 619.912 64.786 C 625.521 79.188 642.265 93.855 657.281 97.519 L 709.838 110.345 C 724.853 114.009 726.769 124.187 714.113 133.06 L 672.186 162.453 C 659.531 171.325 649.981 191.056 650.873 206.486 L 653.47 251.407 C 654.362 266.837 644.448 272.71 631.344 264.514 Z " fill="rgb(235,235,235)"/></g></svg>